<?xml version="1.0" encoding="UTF-8"?>
<svg id="Layer_1" data-name="Layer 1" xmlns="http://www.w3.org/2000/svg" viewBox="0 0 300 300">
  <defs>
    <style>
      .cls-1 {
        fill: #231f20;
      }
    </style>
  </defs>
  <rect class="cls-1" x="209.92" y="165.18" width="70" height="2.11"/>
  <rect class="cls-1" x="19.46" y="165.09" width="70" height="2.11"/>
  <g>
    <path class="cls-1" d="m108.97,95.35v-20.13c2.29-.48,4.02-2.57,4.02-5.05,0-2.84-2.26-5.16-5.02-5.16s-5.02,2.32-5.02,5.16c0,2.49,1.73,4.57,4.02,5.05v20.63c0,.32.14.62.37.81l19.54,15.94v12.34h2v-12.83c0-.31-.14-.61-.38-.8l-19.53-15.95Z"/>
    <path class="cls-1" d="m200.52,124.93l2.4-2.04c.79.54,1.74.86,2.76.86,2.76,0,5.02-2.32,5.02-5.16s-2.26-5.16-5.02-5.16-5.02,2.32-5.02,5.16c0,1.05.31,2.02.84,2.84l-4.12,3.5h3.14Z"/>
    <path class="cls-1" d="m149.69,101.2c-2.76,0-5.02,2.32-5.02,5.16,0,2.49,1.73,4.57,4.02,5.05v13.52h2v-13.52c2.29-.48,4.02-2.57,4.02-5.05,0-2.84-2.26-5.16-5.02-5.16Z"/>
    <path class="cls-1" d="m192.2,224.02v-20.64c0-.29-.12-.56-.33-.76l-20.61-19.1v-8.13h-1.68c-.11,0-.22-.02-.32-.06v8.64c0,.29.12.57.33.76l20.61,19.11v20.21c-2.25.51-3.96,2.57-3.96,5.04,0,2.84,2.26,5.16,5.02,5.16s5.02-2.32,5.02-5.16c0-2.51-1.77-4.61-4.09-5.06Z"/>
    <path class="cls-1" d="m204.41,174.76c-.74,0-1.44.18-2.08.48l-.73-.65h-.01c-.63.39-1.37.64-2.21.75l1.3,1.16c-.8.91-1.3,2.11-1.3,3.42,0,2.84,2.26,5.16,5.02,5.16s5.02-2.32,5.02-5.16-2.26-5.16-5.02-5.16Z"/>
    <path class="cls-1" d="m99.22,120.52c0-2.84-2.26-5.16-5.02-5.16s-5.02,2.32-5.02,5.16,2.07,4.92,4.66,5.12v-.21h1.83c.61-.2,1.18-.51,1.67-.92l1.18.92h3.3l-3.21-2.5c.38-.72.61-1.53.61-2.4Z"/>
    <path class="cls-1" d="m171.26,113.01c1.73-1.73,13.32-11.41,20.57-17.41.23-.2.37-.49.37-.8v-19.64c2.19-.55,3.83-2.58,3.83-4.99,0-2.84-2.26-5.16-5.02-5.16s-5.02,2.32-5.02,5.16c0,2.55,1.83,4.67,4.21,5.07v19.07c-20.94,17.32-20.94,17.7-20.94,18.33v12.45h2v-12.07Z"/>
    <path class="cls-1" d="m127.66,175.39h-.78v10.19l-19.55,16.48c-.23.2-.36.48-.36.79v21.17c-2.29.48-4.02,2.57-4.02,5.05,0,2.84,2.26,5.16,5.02,5.16s5.02-2.32,5.02-5.16c0-2.49-1.73-4.57-4.02-5.05v-20.68l19.55-16.48c.23-.2.36-.49.36-.8v-11.3h-.3c-.15.37-.51.63-.92.63Z"/>
    <path class="cls-1" d="m96.68,175.39c-.26,0-.5-.1-.68-.27l-1.16,1c-.89-.84-2.07-1.36-3.37-1.36-2.76,0-5.02,2.32-5.02,5.16s2.26,5.16,5.02,5.16,5.02-2.32,5.02-5.16c0-.77-.18-1.49-.47-2.14l2.77-2.39h-2.11Z"/>
    <path class="cls-1" d="m150.69,190.6v-15.6h-2v15.6c-2.29.48-4.02,2.57-4.02,5.05,0,2.84,2.26,5.16,5.02,5.16s5.02-2.32,5.02-5.16c0-2.49-1.73-4.57-4.02-5.05Z"/>
  </g>
  <path class="cls-1" d="m32.12,144.43h11.74l-1.91,5.33-.68,1.91h-9.14c-3.48,0-6.46-1.22-8.93-3.67l-.04-.04c-2.47-2.47-3.71-5.45-3.71-8.95s1.24-6.47,3.71-8.95l.5-.5c2.38-2.14,5.2-3.2,8.46-3.2h12.2l-2.59,7.24h-9.61c-1.51,0-2.8.53-3.85,1.58-1.06,1.06-1.58,2.33-1.58,3.83s.53,2.78,1.58,3.83c1.06,1.06,2.34,1.58,3.85,1.58Z"/>
  <path class="cls-1" d="m79.53,144.43h9.83l-2.59,7.24h-14.47v-25.31h7.24v18.07Z"/>
  <path class="cls-1" d="m112.65,141.33h-22.5v-5.08h22.5v5.08Z"/>
  <path class="cls-1" d="m136.59,126.36h2.63l-1.19,3.28-1.4,3.96h-6.37v18.07h-7.24v-18.07h-9.54l1.19-3.28,1.4-3.96h20.52Z"/>
  <path class="cls-1" d="m158.73,144.07l7.6,7.6h-9.07l-7.24-7.24v7.24h-7.2v-14.47h12.64c1.2,0,1.8-.6,1.8-1.8s-.6-1.8-1.8-1.8h-16.56l1.19-3.31,1.4-3.92h13.97c6.02,0,9.04,3.01,9.04,9.04,0,4.82-1.92,7.72-5.76,8.68Z"/>
  <path class="cls-1" d="m170.29,129.51c2.59-2.58,5.72-3.87,9.38-3.87s6.79,1.29,9.38,3.87c2.59,2.58,3.89,5.71,3.89,9.38s-1.3,6.8-3.89,9.4c-2.59,2.59-5.72,3.89-9.38,3.89s-6.79-1.3-9.38-3.89c-2.59-2.59-3.89-5.72-3.89-9.4s1.3-6.8,3.89-9.38Zm9.38,15.07c1.57,0,2.92-.56,4.03-1.67,1.12-1.12,1.67-2.45,1.67-4.01s-.56-2.9-1.67-4.01c-1.12-1.12-2.46-1.67-4.03-1.67s-2.91.56-4.01,1.67c-1.1,1.12-1.66,2.45-1.66,4.01s.55,2.9,1.66,4.01c1.1,1.12,2.44,1.67,4.01,1.67Z"/>
  <path class="cls-1" d="m211.15,126.36h7.24v25.31h-7.24l-9.04-12.64v12.64h-7.24v-25.31h7.24l9.04,12.67v-12.67Z"/>
  <path class="cls-1" d="m228.5,151.67h-7.24v-25.31h7.24v25.31Z"/>
  <path class="cls-1" d="m243.04,144.43h11.74l-1.91,5.33-.68,1.91h-9.14c-3.48,0-6.46-1.22-8.93-3.67l-.04-.04c-2.47-2.47-3.71-5.45-3.71-8.95s1.24-6.47,3.71-8.95c.17-.17.34-.34.5-.5,2.38-2.14,5.2-3.2,8.46-3.2h12.2l-2.59,7.24h-9.61c-1.51,0-2.8.53-3.85,1.58-1.06,1.06-1.58,2.33-1.58,3.83s.53,2.78,1.58,3.83c1.06,1.06,2.34,1.58,3.85,1.58Z"/>
  <path class="cls-1" d="m265.25,135.4h5.4c6.02,0,9.04,2.69,9.04,8.06s-3.01,8.21-9.04,8.21h-15.8l1.19-3.28,1.4-3.96h13.21c1.2,0,1.8-.32,1.8-.97,0-.55-.6-.83-1.8-.83h-5.4c-6.05,0-9.07-2.74-9.07-8.21s3.02-8.06,9.07-8.06h15.37l-1.15,3.28-1.4,3.96h-12.82c-1.22,0-1.84.28-1.84.83,0,.65.61.97,1.84.97Z"/>
  <path class="cls-1" d="m110.3,173.48l-3.63-3.98h-5.37v-2.21h5.98c1.8,0,2.74-1.03,2.74-2.88s-1.03-2.76-2.74-2.76h-7.81v11.83h-2.49v-14.34h10.3c3.27,0,5.21,2.03,5.21,5.23,0,2.37-1.1,4.04-2.96,4.75l4.32,4.36h-3.55Z"/>
  <path class="cls-1" d="m115.15,173.48v-14.34h12.8v2.51h-10.32v9.33h10.34v2.51h-12.82Zm4.32-6.23v-2.11h7.95v2.11h-7.95Z"/>
  <path class="cls-1" d="m134.43,169.49v-2.43h5.76c1.76,0,2.8-1.1,2.8-2.72s-1.05-2.7-2.8-2.7h-7.59v11.83h-2.49v-14.34h10.08c3.31,0,5.25,1.99,5.25,5.13s-1.93,5.23-5.25,5.23h-5.76Z"/>
  <path class="cls-1" d="m163.1,173.48h-3.02l-2.15-3.61h-6.78l1.18-2.04h4.4l-3.2-5.36-6.51,11.01h-2.86l8.25-13.73c.3-.5.67-.81,1.22-.81s.91.31,1.21.81l8.26,13.73Z"/>
  <path class="cls-1" d="m164.77,173.48v-14.34h2.51v14.34h-2.51Z"/>
  <path class="cls-1" d="m183.21,173.48l-3.63-3.98h-5.36v-2.21h5.98c1.79,0,2.74-1.03,2.74-2.88s-1.03-2.76-2.74-2.76h-7.81v11.83h-2.48v-14.34h10.3c3.27,0,5.21,2.03,5.21,5.23,0,2.37-1.1,4.04-2.96,4.75l4.32,4.36h-3.55Z"/>
  <path class="cls-1" d="m188.05,173.48v-2.51h10.75c1.34,0,2.09-.75,2.09-1.87,0-1.22-.75-1.86-2.09-1.86h-6.59c-2.7,0-4.38-1.72-4.38-4.08s1.56-4.02,4.42-4.02h10.3v2.51h-10.3c-1.14,0-1.82.67-1.82,1.75s.69,1.74,1.8,1.74h6.57c2.9,0,4.46,1.36,4.46,4.14,0,2.41-1.46,4.2-4.46,4.2h-10.75Z"/>
  <path class="cls-1" d="m54.57,148.66c-3.91,0-6.35-2.36-6.35-6,0-2.25,1.33-3.85,3.09-4.42-1.47-.46-2.71-1.71-2.71-4.21,0-3.36,2.52-5.1,6.38-5.1h3.74v3.42h-3.85c-1.85,0-2.8.84-2.8,2.44s.95,2.39,2.88,2.39h10.53v2.88h-2.33v5.16h3.55v3.45h-12.13Zm5.13-8.6h-4.5c-2.25,0-3.5.6-3.5,2.52,0,1.68,1.25,2.63,3.45,2.63h4.56v-5.16Z"/>
</svg>