<svg width="190" height="190" xmlns="http://www.w3.org/2000/svg" xmlns:xlink="http://www.w3.org/1999/xlink" xml:space="preserve" overflow="hidden"><g transform="translate(-489 -830)"><path d="M570.77 930.789 570.77 939.871C570.77 939.959 570.789 940.042 570.82 940.118L570.82 930.542C570.789 930.618 570.77 930.7 570.77 930.789Z" stroke="#231F20" stroke-width="0.633333" stroke-miterlimit="10" fill="#231F20"/><path d="M570.82 901.484 570.82 909.395 569.554 909.395 569.554 901.788 557.178 891.959C557.033 891.839 556.944 891.655 556.944 891.459L556.944 876.259C556.944 875.91 557.223 875.625 557.577 875.625 557.932 875.625 558.211 875.91 558.211 876.259L558.211 891.155 570.58 900.99C570.732 901.111 570.82 901.294 570.82 901.484Z" stroke="#231F20" stroke-width="0.633333" stroke-miterlimit="10" fill="#231F20"/><path d="M570.82 926.691 570.82 947.084C570.82 947.274 570.738 947.458 570.592 947.578L558.211 957.737 558.211 972.31C558.211 972.658 557.926 972.943 557.577 972.943 557.229 972.943 556.944 972.658 556.944 972.31L556.944 957.433C556.944 957.243 557.026 957.066 557.172 956.945L569.554 946.787 569.554 940.504 570.048 940.504C570.396 940.504 570.681 940.219 570.681 939.871L570.681 938.281C570.681 937.933 570.396 937.648 570.048 937.648L569.554 937.648 569.554 936.552 569.699 936.552C570.048 936.552 570.333 936.267 570.333 935.919L570.333 934.582C570.333 934.234 570.048 933.949 569.699 933.949L569.554 933.949 569.554 933.005 570.035 933.005C570.383 933.005 570.668 932.72 570.668 932.372L570.668 930.789C570.668 930.434 570.383 930.155 570.035 930.155L569.554 930.155 569.554 926.691 570.82 926.691Z" stroke="#231F20" stroke-width="0.633333" stroke-miterlimit="10" fill="#231F20"/><path d="M596.401 924.36C596.8 924.759 597.218 925.12 597.661 925.424L597.661 930.155 596.597 930.155C596.527 930.155 596.458 930.168 596.394 930.193L596.394 924.354 596.401 924.354Z" stroke="#231F20" stroke-width="0.633333" stroke-miterlimit="10" fill="#231F20"/><path d="M610.923 876.259 610.923 890.813C610.923 891.003 610.834 891.186 610.689 891.307 606.097 895.005 598.757 900.978 597.661 902.042L597.661 910.516C597.218 910.826 596.8 911.174 596.401 911.573L596.394 911.573C596.394 911.573 596.394 901.807 596.394 901.807 596.394 901.421 596.394 901.187 609.656 890.509L609.656 876.259C609.656 875.91 609.941 875.625 610.29 875.625 610.638 875.625 610.923 875.91 610.923 876.259Z" stroke="#231F20" stroke-width="0.633333" stroke-miterlimit="10" fill="#231F20"/><path d="M610.714 957.287C610.847 957.408 610.923 957.579 610.923 957.756L610.923 972.31C610.923 972.658 610.638 972.943 610.29 972.943 609.941 972.943 609.656 972.658 609.656 972.31L609.656 958.041 596.603 946.261C596.47 946.141 596.394 945.97 596.394 945.792L596.394 940.466C596.458 940.491 596.527 940.504 596.597 940.504L597.661 940.504 597.661 945.514 610.714 957.287Z" stroke="#231F20" stroke-width="0.633333" stroke-miterlimit="10" fill="#231F20"/><path d="M584.633 898.577 584.633 909.395 583.367 909.395 583.367 898.577C583.367 898.223 583.652 897.944 584 897.944 584.348 897.944 584.633 898.223 584.633 898.577Z" stroke="#231F20" stroke-width="0.633333" stroke-miterlimit="10" fill="#231F20"/><path d="M583.367 915.247 584.633 915.247 584.633 916.26 583.367 916.26Z" stroke="#231F20" stroke-width="0.633333" stroke-miterlimit="10" fill="#231F20"/><path d="M584.633 926.184 584.633 931.435 583.367 933.537 583.367 926.691 584.013 926.691C584.317 926.691 584.576 926.476 584.633 926.184Z" stroke="#231F20" stroke-width="0.633333" stroke-miterlimit="10" fill="#231F20"/><path d="M584.633 938.205 584.633 951.29C584.633 951.638 584.348 951.923 584 951.923 583.652 951.923 583.367 951.638 583.367 951.29L583.367 938.997 584.114 937.73C584.127 937.793 584.152 937.85 584.177 937.901 584.272 938.072 584.443 938.18 584.633 938.205Z" stroke="#231F20" stroke-width="0.633333" stroke-miterlimit="10" fill="#231F20"/><path d="M558.211 913.454 558.211 915.665 556.944 915.665 556.944 913.765 549.11 907.811C548.831 907.602 548.774 907.203 548.983 906.925 549.198 906.646 549.597 906.589 549.876 906.804L557.957 912.948C558.116 913.068 558.211 913.252 558.211 913.454Z" stroke="#231F20" stroke-width="0.633333" stroke-miterlimit="10" fill="#231F20"/><path d="M550.427 940.504 551.763 940.504 549.895 942.075C549.781 942.17 549.635 942.22 549.49 942.22 549.312 942.22 549.129 942.144 549.008 941.992 548.78 941.726 548.812 941.327 549.084 941.106L549.996 940.339C550.11 940.441 550.262 940.504 550.427 940.504Z" stroke="#231F20" stroke-width="0.633333" stroke-miterlimit="10" fill="#231F20"/><path d="M553.163 937.977 554.772 937.977 552.637 939.769 552.637 938.123 552.884 937.914C552.967 937.952 553.062 937.977 553.163 937.977Z" stroke="#231F20" stroke-width="0.633333" stroke-miterlimit="10" fill="#231F20"/><path d="M558.211 920.142 558.211 930.32C557.824 930.212 557.406 930.155 556.95 930.155L556.95 930.155 556.95 920.142 558.217 920.142Z" stroke="#231F20" stroke-width="0.633333" stroke-miterlimit="10" fill="#231F20"/><path d="M610.758 933.005 610.923 933.005 610.923 933.949 610.746 933.949C610.302 933.949 610.239 933.727 610.239 933.487 610.239 933.195 610.328 933.005 610.758 933.005Z" stroke="#231F20" stroke-width="0.633333" stroke-miterlimit="10" fill="#231F20"/><path d="M612.905 936.552 614.159 937.648 612.234 937.648 610.974 936.552 612.905 936.552Z" stroke="#231F20" stroke-width="0.633333" stroke-miterlimit="10" fill="#231F20"/><path d="M609.656 923.841C610.169 923.252 610.594 922.619 610.923 921.947L610.923 930.155 610.758 930.155C610.366 930.155 609.992 930.2 609.656 930.288L609.656 923.841Z" stroke="#231F20" stroke-width="0.633333" stroke-miterlimit="10" fill="#231F20"/><path d="M610.169 912.732 611.784 911.396 611.784 913.043 610.923 913.752 610.923 913.98C610.714 913.549 610.461 913.131 610.169 912.732Z" stroke="#231F20" stroke-width="0.633333" stroke-miterlimit="10" fill="#231F20"/><path d="M618.13 907.792 616.192 909.395 614.204 909.395 617.326 906.817C617.592 906.595 617.997 906.633 618.219 906.906 618.441 907.172 618.403 907.571 618.13 907.792Z" stroke="#231F20" stroke-width="0.633333" stroke-miterlimit="10" fill="#231F20"/><path d="M618.143 941.112C618.409 941.34 618.434 941.739 618.206 942.005 618.08 942.151 617.902 942.22 617.725 942.22 617.579 942.22 617.434 942.17 617.313 942.068L615.477 940.472C616.009 940.403 616.477 940.251 616.876 940.01L616.883 940.01 618.143 941.112Z" stroke="#231F20" stroke-width="0.633333" stroke-miterlimit="10" fill="#231F20"/><path d="M557.577 872.446C559.333 872.446 560.757 873.869 560.757 875.625L560.757 875.625C560.757 877.381 559.333 878.805 557.577 878.805L557.577 878.805C555.821 878.805 554.398 877.381 554.398 875.625L554.398 875.625C554.398 873.869 555.821 872.446 557.577 872.446Z" stroke="#231F20" stroke-width="0.633333" stroke-miterlimit="10" fill="#231F20"/><path d="M584 894.765C585.756 894.765 587.179 896.188 587.179 897.944L587.179 897.944C587.179 899.7 585.756 901.123 584 901.123L584 901.123C582.244 901.123 580.821 899.7 580.821 897.944L580.821 897.944C580.821 896.188 582.244 894.765 584 894.765Z" stroke="#231F20" stroke-width="0.633333" stroke-miterlimit="10" fill="#231F20"/><path d="M610.169 872.446C611.925 872.446 613.349 873.869 613.349 875.625L613.349 875.625C613.349 877.381 611.925 878.805 610.169 878.805L610.169 878.805C608.413 878.805 606.99 877.381 606.99 875.625L606.99 875.625C606.99 873.869 608.413 872.446 610.169 872.446Z" stroke="#231F20" stroke-width="0.633333" stroke-miterlimit="10" fill="#231F20"/><path d="M548.856 903.492C550.612 903.492 552.036 904.915 552.036 906.671L552.036 906.671C552.036 908.427 550.612 909.851 548.856 909.851L548.856 909.851C547.1 909.851 545.677 908.427 545.677 906.671L545.677 906.671C545.677 904.915 547.1 903.492 548.856 903.492Z" stroke="#231F20" stroke-width="0.633333" stroke-miterlimit="10" fill="#231F20"/><path d="M619.46 902.308C621.216 902.308 622.64 903.731 622.64 905.487L622.64 905.487C622.64 907.243 621.216 908.666 619.46 908.666L619.46 908.666C617.704 908.666 616.281 907.243 616.281 905.487L616.281 905.487C616.281 903.731 617.704 902.308 619.46 902.308Z" stroke="#231F20" stroke-width="0.633333" stroke-miterlimit="10" fill="#231F20"/><path d="M610.328 970.423C612.084 970.423 613.507 971.846 613.507 973.602L613.507 973.602C613.507 975.358 612.084 976.781 610.328 976.781L610.328 976.781C608.572 976.781 607.148 975.358 607.148 973.602L607.148 973.602C607.148 971.846 608.572 970.423 610.328 970.423Z" stroke="#231F20" stroke-width="0.633333" stroke-miterlimit="10" fill="#231F20"/><path d="M618.656 940.118C620.412 940.118 621.835 941.541 621.835 943.297L621.835 943.297C621.835 945.053 620.412 946.476 618.656 946.476L618.656 946.476C616.9 946.476 615.477 945.053 615.477 943.297L615.477 943.297C615.477 941.541 616.9 940.118 618.656 940.118Z" stroke="#231F20" stroke-width="0.633333" stroke-miterlimit="10" fill="#231F20"/><path d="M584 949.814C585.756 949.814 587.179 951.237 587.179 952.993L587.179 952.993C587.179 954.749 585.756 956.173 584 956.173L584 956.173C582.244 956.173 580.821 954.749 580.821 952.993L580.821 952.993C580.821 951.237 582.244 949.814 584 949.814Z" stroke="#231F20" stroke-width="0.633333" stroke-miterlimit="10" fill="#231F20"/><path d="M557.577 970.423C559.333 970.423 560.757 971.846 560.757 973.602L560.757 973.602C560.757 975.358 559.333 976.781 557.577 976.781L557.577 976.781C555.821 976.781 554.398 975.358 554.398 973.602L554.398 973.602C554.398 971.846 555.821 970.423 557.577 970.423Z" stroke="#231F20" stroke-width="0.633333" stroke-miterlimit="10" fill="#231F20"/><path d="M547.127 940.118C548.883 940.118 550.307 941.541 550.307 943.297L550.307 943.297C550.307 945.053 548.883 946.476 547.127 946.476L547.127 946.476C545.371 946.476 543.948 945.053 543.948 943.297L543.948 943.297C543.948 941.541 545.371 940.118 547.127 940.118Z" stroke="#231F20" stroke-width="0.633333" stroke-miterlimit="10" fill="#231F20"/><path d="M496.777 910.028 671.413 910.028 671.413 939.63 496.777 939.63Z" fill="#FFFFFF" fill-opacity="0.95"/><path d="M509.343 921.472 516.778 921.472 515.568 924.848 515.138 926.058 509.349 926.058C507.145 926.058 505.258 925.285 503.693 923.733L503.668 923.708C502.104 922.144 501.318 920.256 501.318 918.04 501.318 915.823 502.104 913.942 503.668 912.371L503.985 912.055C505.492 910.699 507.278 910.028 509.343 910.028L517.069 910.028 515.429 914.613 509.343 914.613C508.386 914.613 507.569 914.949 506.904 915.614 506.233 916.285 505.904 917.09 505.904 918.04 505.904 918.99 506.239 919.8 506.904 920.465 507.576 921.137 508.386 921.466 509.343 921.466Z" fill="#231F20"/><path d="M539.369 921.472 545.595 921.472 543.954 926.058 534.79 926.058 534.79 910.028 539.375 910.028 539.375 921.472Z" fill="#231F20"/><path d="M560.345 919.509 546.095 919.509 546.095 916.292 560.345 916.292 560.345 919.509Z" fill="#231F20"/><path d="M575.507 910.028 577.173 910.028 576.419 912.105 575.532 914.613 571.498 914.613 571.498 926.058 566.913 926.058 566.913 914.613 560.871 914.613 561.624 912.536 562.511 910.028 575.507 910.028Z" fill="#231F20"/><path d="M589.529 921.244 594.342 926.058 588.598 926.058 584.013 921.472 584.013 926.058 579.453 926.058 579.453 916.893 587.458 916.893C588.218 916.893 588.598 916.513 588.598 915.753 588.598 914.993 588.218 914.613 587.458 914.613L576.97 914.613 577.724 912.517 578.61 910.034 587.458 910.034C591.271 910.034 593.183 911.941 593.183 915.76 593.183 918.812 591.967 920.649 589.535 921.257Z" fill="#231F20"/><path d="M596.85 912.023C598.491 910.389 600.473 909.572 602.791 909.572 605.109 909.572 607.091 910.389 608.732 912.023 610.372 913.657 611.195 915.639 611.195 917.964 611.195 920.288 610.372 922.27 608.732 923.917 607.091 925.557 605.109 926.381 602.791 926.381 600.473 926.381 598.491 925.557 596.85 923.917 595.21 922.277 594.387 920.294 594.387 917.964 594.387 915.633 595.21 913.657 596.85 912.023ZM602.791 921.567C603.785 921.567 604.64 921.213 605.343 920.51 606.053 919.8 606.401 918.958 606.401 917.97 606.401 916.982 606.046 916.133 605.343 915.43 604.634 914.721 603.785 914.373 602.791 914.373 601.797 914.373 600.948 914.727 600.251 915.43 599.555 916.14 599.2 916.982 599.2 917.97 599.2 918.958 599.548 919.807 600.251 920.51 600.948 921.219 601.797 921.567 602.791 921.567Z" fill="#231F20"/><path d="M622.728 910.028 627.314 910.028 627.314 926.058 622.728 926.058 617.003 918.052 617.003 926.058 612.418 926.058 612.418 910.028 617.003 910.028 622.728 918.052 622.728 910.028Z" fill="#231F20"/><path d="M633.717 926.058 629.131 926.058 629.131 910.028 633.717 910.028 633.717 926.058Z" fill="#231F20"/><path d="M642.925 921.472 650.361 921.472 649.151 924.848 648.72 926.058 642.932 926.058C640.728 926.058 638.84 925.285 637.276 923.733L637.251 923.708C635.686 922.144 634.901 920.256 634.901 918.04 634.901 915.823 635.686 913.942 637.251 912.371 637.358 912.264 637.466 912.156 637.567 912.055 639.075 910.699 640.861 910.028 642.925 910.028L650.652 910.028 649.012 914.613 642.925 914.613C641.969 914.613 641.152 914.949 640.487 915.614 639.816 916.285 639.486 917.09 639.486 918.04 639.486 918.99 639.822 919.8 640.487 920.465 641.158 921.137 641.969 921.466 642.925 921.466Z" fill="#231F20"/><path d="M656.992 915.753 660.412 915.753C664.224 915.753 666.137 917.457 666.137 920.858 666.137 924.259 664.231 926.058 660.412 926.058L650.405 926.058 651.159 923.98 652.045 921.472 660.412 921.472C661.172 921.472 661.552 921.27 661.552 920.858 661.552 920.51 661.172 920.332 660.412 920.332L656.992 920.332C653.16 920.332 651.247 918.597 651.247 915.133 651.247 911.668 653.16 910.028 656.992 910.028L666.726 910.028 665.998 912.105 665.111 914.613 656.992 914.613C656.219 914.613 655.826 914.791 655.826 915.139 655.826 915.551 656.213 915.753 656.992 915.753Z" fill="#231F20"/><path d="M558.857 939.871 556.558 937.35 553.157 937.35 553.157 935.95 556.944 935.95C558.084 935.95 558.679 935.298 558.679 934.126 558.679 932.955 558.027 932.378 556.944 932.378L551.998 932.378 551.998 939.871 550.421 939.871 550.421 930.789 556.944 930.789C559.015 930.789 560.244 932.074 560.244 934.101 560.244 935.602 559.547 936.66 558.369 937.109L561.105 939.871 558.857 939.871Z" fill="#231F20"/><path d="M561.928 939.871 561.928 930.789 570.035 930.789 570.035 932.378 563.499 932.378 563.499 938.287 570.048 938.287 570.048 939.877 561.928 939.877ZM564.664 935.925 564.664 934.589 569.699 934.589 569.699 935.925 564.664 935.925Z" fill="#231F20"/><path d="M574.139 937.344 574.139 935.805 577.787 935.805C578.902 935.805 579.56 935.108 579.56 934.082 579.56 933.056 578.895 932.372 577.787 932.372L572.98 932.372 572.98 939.864 571.403 939.864 571.403 930.782 577.787 930.782C579.883 930.782 581.112 932.043 581.112 934.031 581.112 936.02 579.89 937.344 577.787 937.344L574.139 937.344Z" fill="#231F20"/><path d="M592.297 939.871 590.384 939.871 589.022 937.584 584.728 937.584 585.476 936.292 588.262 936.292 586.236 932.898 582.113 939.871 580.301 939.871 585.526 931.175C585.716 930.858 585.951 930.662 586.299 930.662 586.647 930.662 586.875 930.858 587.065 931.175L592.297 939.871Z" fill="#231F20"/><path d="M593.354 939.871 593.354 930.789 594.944 930.789 594.944 939.871 593.354 939.871Z" fill="#231F20"/><path d="M605.033 939.871 602.734 937.35 599.339 937.35 599.339 935.95 603.127 935.95C604.26 935.95 604.862 935.298 604.862 934.126 604.862 932.955 604.21 932.378 603.127 932.378L598.18 932.378 598.18 939.871 596.61 939.871 596.61 930.789 603.133 930.789C605.204 930.789 606.433 932.074 606.433 934.101 606.433 935.602 605.736 936.66 604.558 937.109L607.294 939.871 605.046 939.871Z" fill="#231F20"/><path d="M608.098 939.871 608.098 938.281 614.907 938.281C615.755 938.281 616.23 937.806 616.23 937.097 616.23 936.324 615.755 935.919 614.907 935.919L610.733 935.919C609.023 935.919 607.959 934.829 607.959 933.335 607.959 931.84 608.947 930.789 610.758 930.789L617.282 930.789 617.282 932.378 610.758 932.378C610.036 932.378 609.606 932.803 609.606 933.487 609.606 934.171 610.043 934.589 610.746 934.589L614.907 934.589C616.743 934.589 617.731 935.45 617.731 937.211 617.731 938.737 616.807 939.871 614.907 939.871L608.098 939.871Z" fill="#231F20"/><path d="M523.561 924.151C521.085 924.151 519.539 922.657 519.539 920.351 519.539 918.926 520.382 917.913 521.496 917.552 520.565 917.261 519.78 916.469 519.78 914.886 519.78 912.758 521.376 911.656 523.821 911.656L526.189 911.656 526.189 913.822 523.751 913.822C522.579 913.822 521.978 914.354 521.978 915.367 521.978 916.38 522.579 916.881 523.802 916.881L530.471 916.881 530.471 918.705 528.995 918.705 528.995 921.973 531.243 921.973 531.243 924.158 523.561 924.158ZM526.81 918.705 523.96 918.705C522.535 918.705 521.743 919.085 521.743 920.301 521.743 921.365 522.535 921.966 523.928 921.966L526.816 921.966 526.816 918.698Z" fill="#231F20"/><path d="M545.873 935.311 501.54 935.311" stroke="#231F20" stroke-width="1.26667" stroke-miterlimit="10" fill="none"/><path d="M622.165 935.311 666.498 935.311" stroke="#231F20" stroke-width="1.26667" stroke-miterlimit="10" fill="none"/></g></svg>